<?xml version="1.0" encoding="UTF-8" standalone="no"?>
<!DOCTYPE svg PUBLIC "-//W3C//DTD SVG 1.1//EN" "http://www.w3.org/Graphics/SVG/1.1/DTD/svg11.dtd">
<svg width="100%" height="100%" viewBox="0 0 256 256" version="1.1" xmlns="http://www.w3.org/2000/svg" xmlns:xlink="http://www.w3.org/1999/xlink" xml:space="preserve" xmlns:serif="http://www.serif.com/" style="fill-rule:evenodd;clip-rule:evenodd;stroke-linejoin:round;stroke-miterlimit:2;">
    <g transform="matrix(1.08455,0,0,1.08455,4.96124,4.96124)">
        <path d="M113.447,0C176.06,0 226.894,50.834 226.894,113.447C226.894,176.06 176.06,226.894 113.447,226.894C50.834,226.894 0,176.06 0,113.447C0,50.834 50.834,0 113.447,0ZM111.142,31.106L111.142,195.788C111.142,197.06 112.175,198.093 113.447,198.093C114.719,198.093 115.752,197.06 115.752,195.788L115.752,31.106C115.752,29.834 114.719,28.801 113.447,28.801C112.175,28.801 111.142,29.834 111.142,31.106ZM35.024,102.878L113.447,24.455L191.87,102.878C192.77,103.778 194.231,103.778 195.13,102.878C196.03,101.979 196.03,100.518 195.13,99.618L115.077,19.565C114.177,18.665 112.717,18.665 111.817,19.565L31.764,99.618C30.864,100.518 30.864,101.979 31.764,102.878C32.663,103.778 34.124,103.778 35.024,102.878Z"/>
    </g>
</svg>
