<?xml version="1.0" encoding="UTF-8" standalone="no"?>
<!DOCTYPE svg PUBLIC "-//W3C//DTD SVG 1.1//EN" "http://www.w3.org/Graphics/SVG/1.1/DTD/svg11.dtd">
<svg width="100%" height="100%" viewBox="0 0 2230 1288" version="1.1" xmlns="http://www.w3.org/2000/svg" xmlns:xlink="http://www.w3.org/1999/xlink" xml:space="preserve" xmlns:serif="http://www.serif.com/" style="fill-rule:evenodd;clip-rule:evenodd;stroke-linejoin:round;stroke-miterlimit:2;">
    <g id="Artboard1" transform="matrix(1,0,0,1,0,-1126.8)">
        <rect x="0" y="1126.8" width="2229.26" height="1287.32" style="fill:none;"/>
        <g transform="matrix(4.16667,0,0,4.16667,2029.2,1908.7)">
            <path d="M0,70.019L0,54.385L-7.857,54.385L-7.857,69.777C-7.857,74.29 -9.63,76.546 -13.176,76.546C-16.749,76.546 -18.535,74.29 -18.535,69.777L-18.535,54.385L-26.513,54.385L-26.513,70.019C-26.513,74.21 -25.352,77.447 -23.028,79.73C-20.705,82.013 -17.447,83.155 -13.257,83.155C-9.066,83.155 -5.809,82.013 -3.485,79.73C-1.162,77.447 0,74.21 0,70.019M-4.868,33.465C-1.919,30.568 -0.444,26.458 -0.444,21.139L-0.444,1.294L-10.417,1.294L-10.417,20.832C-10.417,26.561 -12.668,29.425 -17.169,29.425C-21.704,29.425 -23.971,26.561 -23.971,20.832L-23.971,1.294L-34.098,1.294L-34.098,21.139C-34.098,26.458 -32.624,30.568 -29.674,33.465C-26.725,36.364 -22.59,37.813 -17.271,37.813C-11.952,37.813 -7.818,36.364 -4.868,33.465M-63.359,37.097L-36.149,37.097L-36.149,29.067L-53.232,29.067L-53.232,1.294L-63.359,1.294L-63.359,37.097ZM-62.938,68.488C-62.938,65.694 -63.617,63.183 -64.973,60.953C-66.33,58.723 -68.197,56.978 -70.574,55.715C-72.951,54.452 -75.631,53.821 -78.613,53.821C-81.594,53.821 -84.274,54.452 -86.651,55.715C-89.028,56.978 -90.896,58.723 -92.252,60.953C-93.609,63.183 -94.287,65.694 -94.287,68.488C-94.287,71.282 -93.609,73.793 -92.252,76.023C-90.896,78.253 -89.028,79.998 -86.651,81.261C-84.274,82.524 -81.594,83.155 -78.613,83.155C-75.631,83.155 -72.951,82.524 -70.574,81.261C-68.197,79.998 -66.33,78.253 -64.973,76.023C-63.617,73.793 -62.938,71.282 -62.938,68.488M-70.997,68.488C-70.997,70.073 -71.333,71.476 -72.004,72.698C-72.676,73.921 -73.59,74.868 -74.744,75.539C-75.9,76.211 -77.189,76.546 -78.613,76.546C-80.037,76.546 -81.326,76.211 -82.481,75.539C-83.636,74.868 -84.55,73.921 -85.221,72.698C-85.893,71.476 -86.228,70.073 -86.228,68.488C-86.228,66.903 -85.893,65.5 -85.221,64.277C-84.55,63.055 -83.636,62.108 -82.481,61.436C-81.326,60.765 -80.037,60.429 -78.613,60.429C-77.189,60.429 -75.9,60.765 -74.744,61.436C-73.59,62.108 -72.676,63.055 -72.004,64.277C-71.333,65.5 -70.997,66.903 -70.997,68.488M-74.155,12.956L-67.711,7.125C-69.484,5.011 -71.7,3.391 -74.36,2.266C-77.019,1.141 -80.02,0.578 -83.361,0.578C-87.18,0.578 -90.607,1.371 -93.642,2.957C-96.677,4.542 -99.046,6.75 -100.751,9.58C-102.456,12.411 -103.308,15.615 -103.308,19.195C-103.308,22.776 -102.456,25.981 -100.751,28.811C-99.046,31.642 -96.694,33.849 -93.693,35.434C-90.693,37.02 -87.317,37.813 -83.566,37.813C-80.906,37.813 -78.247,37.42 -75.587,36.636C-72.927,35.852 -70.575,34.727 -68.529,33.261L-68.529,18.428L-77.479,18.428L-77.479,28.248C-79.185,29.033 -81.009,29.425 -82.952,29.425C-84.93,29.425 -86.686,28.99 -88.22,28.121C-89.755,27.251 -90.948,26.041 -91.8,24.489C-92.653,22.938 -93.079,21.173 -93.079,19.195C-93.079,16.093 -92.142,13.613 -90.266,11.754C-88.391,9.896 -85.918,8.966 -82.85,8.966C-79.474,8.966 -76.576,10.296 -74.155,12.956M-77.782,-3.331C-76.713,-3.481 -75.46,-3.859 -74.524,-4.639L-74.545,-12.2C-75.48,-11.419 -77.779,-11.072 -78.849,-10.921C-84.554,-10.119 -87.892,-12.848 -92.216,-12.241C-93.152,-12.109 -94.309,-11.726 -95.193,-10.906L-95.173,-3.318C-94.288,-4.138 -92.085,-4.519 -91.149,-4.65C-86.87,-5.252 -83.532,-2.523 -77.782,-3.331M-109.369,28.76C-107.647,25.93 -106.786,22.742 -106.786,19.195C-106.786,15.65 -107.647,12.462 -109.369,9.631C-111.091,6.801 -113.46,4.585 -116.478,2.982C-119.496,1.38 -122.897,0.578 -126.682,0.578C-130.466,0.578 -133.868,1.38 -136.885,2.982C-139.903,4.585 -142.273,6.801 -143.995,9.631C-145.717,12.462 -146.578,15.65 -146.578,19.195C-146.578,22.742 -145.717,25.93 -143.995,28.76C-142.273,31.59 -139.903,33.806 -136.885,35.409C-133.868,37.012 -130.466,37.813 -126.682,37.813C-122.897,37.813 -119.496,37.012 -116.478,35.409C-113.46,33.806 -111.091,31.59 -109.369,28.76M-117.015,19.195C-117.015,21.208 -117.442,22.989 -118.294,24.54C-119.146,26.092 -120.306,27.294 -121.772,28.146C-123.238,28.999 -124.875,29.425 -126.682,29.425C-128.489,29.425 -130.126,28.999 -131.592,28.146C-133.058,27.294 -134.218,26.092 -135.07,24.54C-135.922,22.989 -136.348,21.208 -136.348,19.195C-136.348,17.184 -135.922,15.403 -135.07,13.851C-134.218,12.3 -133.058,11.098 -131.592,10.245C-130.126,9.393 -128.489,8.966 -126.682,8.966C-124.875,8.966 -123.238,9.393 -121.772,10.245C-120.306,11.098 -119.146,12.3 -118.294,13.851C-117.442,15.403 -117.015,17.184 -117.015,19.195M-174.099,37.097L-146.889,37.097L-146.889,29.067L-163.972,29.067L-163.972,1.294L-174.099,1.294L-174.099,37.097ZM-182.353,-4.231C-181.37,-5.214 -180.877,-6.461 -180.877,-7.972C-180.877,-9.482 -181.37,-10.72 -182.353,-11.687C-183.337,-12.653 -184.584,-13.136 -186.094,-13.136C-187.605,-13.136 -188.852,-12.653 -189.836,-11.687C-190.819,-10.72 -191.311,-9.482 -191.311,-7.972C-191.311,-6.461 -190.829,-5.214 -189.862,-4.231C-188.896,-3.247 -187.641,-2.755 -186.094,-2.755C-184.584,-2.755 -183.337,-3.247 -182.353,-4.231M-216.053,82.591L-193.408,82.591L-193.408,76.426L-208.155,76.426L-208.155,71.268L-195.624,71.268L-195.624,65.305L-208.155,65.305L-208.155,60.55L-193.932,60.55L-193.932,54.385L-216.053,54.385L-216.053,82.591ZM-210.151,37.097L-194.807,1.294L-204.832,1.294L-214.755,24.617L-224.472,1.294L-235.417,1.294L-220.125,37.097L-210.151,37.097ZM-235.417,17.252C-235.417,11.933 -236.892,7.824 -239.842,4.926C-242.791,2.027 -246.925,0.578 -252.245,0.578C-257.564,0.578 -261.698,2.027 -264.648,4.926C-267.596,7.824 -269.072,11.933 -269.072,17.252L-269.072,37.097L-259.098,37.097L-259.098,29.201L-245.544,29.201L-245.544,37.097L-235.417,37.097L-235.417,17.252ZM-245.544,22.018L-259.098,22.018L-259.098,17.559C-259.098,11.83 -256.848,8.966 -252.347,8.966C-247.812,8.966 -245.544,11.83 -245.544,17.559L-245.544,22.018ZM-267.531,55.715C-269.908,56.978 -271.775,58.723 -273.132,60.953C-274.488,63.183 -275.166,65.694 -275.166,68.488C-275.166,71.282 -274.488,73.793 -273.132,76.023C-271.775,78.253 -269.908,79.998 -267.531,81.261C-265.153,82.524 -262.474,83.155 -259.492,83.155C-256.51,83.155 -253.831,82.524 -251.454,81.261C-249.076,79.998 -247.21,78.253 -245.853,76.023C-244.497,73.793 -243.818,71.282 -243.818,68.488C-243.818,65.694 -244.497,63.183 -245.853,60.953C-247.21,58.723 -249.076,56.978 -251.454,55.715C-253.831,54.452 -256.51,53.821 -259.492,53.821C-262.474,53.821 -265.153,54.452 -267.531,55.715M-267.108,68.488C-267.108,66.903 -266.772,65.5 -266.1,64.277C-265.429,63.055 -264.516,62.108 -263.36,61.436C-262.206,60.765 -260.916,60.429 -259.492,60.429C-258.069,60.429 -256.779,60.765 -255.624,61.436C-254.469,62.108 -253.556,63.055 -252.884,64.277C-252.213,65.5 -251.877,66.903 -251.877,68.488C-251.877,70.073 -252.213,71.476 -252.884,72.698C-253.556,73.921 -254.469,74.868 -255.624,75.539C-256.779,76.211 -258.069,76.546 -259.492,76.546C-260.916,76.546 -262.206,76.211 -263.36,75.539C-264.516,74.868 -265.429,73.921 -266.1,72.698C-266.772,71.476 -267.108,70.073 -267.108,68.488M-283.542,9.324L-272.597,9.324L-272.597,1.294L-304.666,1.294L-304.666,9.324L-293.669,9.324L-293.669,37.097L-283.542,37.097L-283.542,9.324ZM-294.109,54.385L-302.006,54.385L-302.006,82.591L-294.109,82.591L-294.109,75.539L-291.127,72.356L-283.068,82.591L-273.801,82.591L-285.929,66.876L-274.405,54.385L-283.189,54.385L-294.109,66.111L-294.109,54.385ZM-232.653,54.385L-240.631,54.385L-240.631,82.591L-219.195,82.591L-219.195,76.264L-232.653,76.264L-232.653,54.385ZM-181.031,1.294L-191.158,1.294L-191.158,37.096L-181.031,37.096L-181.031,1.294ZM-181.078,54.385L-188.976,54.385L-188.976,82.591L-181.078,82.591L-181.078,75.539L-178.096,72.356L-170.038,82.591L-160.77,82.591L-172.898,66.876L-161.375,54.385L-170.159,54.385L-181.078,66.111L-181.078,54.385ZM-161.254,80.052C-159.911,80.993 -158.165,81.744 -156.015,82.309C-153.867,82.873 -151.651,83.155 -149.367,83.155C-146.681,83.155 -144.398,82.745 -142.517,81.926C-140.637,81.107 -139.227,80.012 -138.286,78.642C-137.346,77.272 -136.876,75.741 -136.876,74.048C-136.876,72.088 -137.394,70.536 -138.427,69.394C-139.462,68.253 -140.684,67.42 -142.094,66.896C-143.504,66.372 -145.284,65.883 -147.433,65.425C-149.341,65.023 -150.724,64.634 -151.583,64.257C-152.443,63.881 -152.873,63.317 -152.873,62.565C-152.873,61.813 -152.51,61.202 -151.785,60.731C-151.059,60.262 -149.905,60.026 -148.319,60.026C-145.795,60.026 -143.189,60.751 -140.503,62.202L-138.045,56.279C-139.415,55.473 -141,54.862 -142.799,54.446C-144.599,54.029 -146.426,53.821 -148.279,53.821C-150.993,53.821 -153.283,54.224 -155.149,55.03C-157.016,55.836 -158.42,56.93 -159.36,58.314C-160.3,59.697 -160.77,61.249 -160.77,62.968C-160.77,64.929 -160.26,66.487 -159.239,67.642C-158.218,68.797 -156.996,69.636 -155.572,70.16C-154.149,70.684 -152.376,71.174 -150.254,71.631C-148.319,72.061 -146.916,72.471 -146.043,72.86C-145.17,73.249 -144.733,73.847 -144.733,74.653C-144.733,76.184 -146.264,76.95 -149.327,76.95C-150.938,76.95 -152.577,76.694 -154.243,76.184C-155.908,75.674 -157.372,75.002 -158.635,74.169L-161.254,80.052ZM-132.168,44.158C-132.943,44.92 -133.331,45.895 -133.331,47.085C-133.331,48.275 -132.951,49.258 -132.189,50.032C-131.428,50.808 -130.439,51.195 -129.221,51.195C-128.031,51.195 -127.048,50.808 -126.273,50.032C-125.499,49.258 -125.111,48.275 -125.111,47.085C-125.111,45.895 -125.499,44.92 -126.273,44.158C-127.048,43.397 -128.031,43.016 -129.221,43.016C-130.411,43.016 -131.394,43.397 -132.168,44.158M-125.232,54.385L-133.21,54.385L-133.21,82.591L-125.232,82.591L-125.232,54.385ZM-114.756,54.385L-123.177,54.385L-112.419,72.356L-112.419,82.591L-104.441,82.591L-104.441,72.477L-93.642,54.385L-101.378,54.385L-108.067,65.587L-114.756,54.385ZM-52.18,54.385L-58.748,54.385L-58.748,82.591L-50.931,82.591L-50.931,67.561L-38.48,82.591L-31.912,82.591L-31.912,54.385L-39.729,54.385L-39.729,69.415L-52.18,54.385Z" style="fill:white;fill-rule:nonzero;"/>
        </g>
        <g transform="matrix(4.16667,0,0,4.16667,900.207,2022.62)">
            <path d="M0,-121.591L43.449,-176.849L0.875,-176.849L-42.534,-121.591L0.875,-66.333L43.449,-66.333L0,-121.591ZM-93.522,55.258L-52.579,55.258L-52.579,-121.591L-168.036,-121.591L-168.036,-80.604L-93.522,-80.604L-93.522,55.258Z" style="fill:white;fill-rule:nonzero;"/>
        </g>
    </g>
</svg>
